<svg xmlns="http://www.w3.org/2000/svg" xmlns:xlink="http://www.w3.org/1999/xlink" xmlns:lucid="lucid" width="1122" height="662"><g transform="translate(-1898.9999999938989 -138.99999999644106)" lucid:page-tab-id="0_0"><path d="M1900 148a8 8 0 0 1 8-8h1104a8 8 0 0 1 8 8v644a8 8 0 0 1-8 8H1908a8 8 0 0 1-8-8z" fill-opacity="0"/><path d="M1927.9 140h19.88m9.95 0h19.9m9.94 0h19.9m9.93 0h19.9m9.94 0h19.9m9.94 0h19.9m9.94 0h19.9m9.94 0h19.9m9.93 0h19.9m9.93 0h19.9m9.94 0h19.9m9.94 0h19.9m9.95 0h19.9m9.93 0h19.9m9.94 0h19.9m9.94 0h19.9m9.94 0h19.9m9.94 0h19.9m9.93 0h19.9m9.94 0h19.9m9.95 0h19.9m9.94 0h19.88m9.94 0h19.9m9.94 0h19.9m9.94 0h19.9m9.94 0h19.9m9.94 0h19.9m9.93 0h19.9m9.95 0h19.9m9.94 0h19.88m9.95 0h19.9m9.93 0h19.9m9.94 0h19.9m9.94 0h19.9m9.94 0h19.9m9.94 0h19.9m9.93 0h9.95l1.25.1 1.22.3 1.16.47 1.07.66.96.8.8.97.67 1.07.48 1.16.3 1.22.1 1.25v10.22m0 10.22v20.45m0 10.2v20.46m0 10.22v20.44m0 10.22v20.45m0 10.2v20.46m0 10.22v20.44m0 10.22v20.45m0 10.2v20.46m0 10.22v20.44m0 10.22v20.45m0 10.2v20.46m0 10.22v20.44m0 10.22v20.45m0 10.2v20.46m0 10.22v20.44m0 10.22v20.45m0 10.2v20.46m0 10.22v20.44m0 10.22v20.45m0 10.2v20.46m0 10.22V792l-.1 1.25-.3 1.22-.47 1.16-.66 1.07-.8.96-.97.8-1.07.67-1.16.48-1.22.3-1.25.1h-9.95m-9.94 0h-19.88m-9.95 0h-19.9m-9.94 0h-19.9m-9.94 0h-19.9m-9.94 0h-19.9m-9.94 0h-19.9m-9.94 0h-19.9m-9.94 0h-19.9m-9.93 0h-19.9m-9.93 0h-19.9m-9.94 0h-19.9m-9.94 0H2644m-9.95 0h-19.9m-9.93 0h-19.9m-9.94 0h-19.9m-9.94 0h-19.9m-9.94 0h-19.9m-9.94 0h-19.9m-9.93 0h-19.9m-9.94 0h-19.9m-9.95 0h-19.9m-9.94 0h-19.88m-9.94 0h-19.9m-9.94 0h-19.9m-9.94 0h-19.9m-9.94 0h-19.9m-9.94 0h-19.9m-9.93 0h-19.9m-9.95 0h-19.9m-9.94 0h-19.88m-9.95 0h-19.9m-9.93 0h-19.9m-9.94 0h-19.9m-9.94 0h-19.9m-9.94 0h-19.9m-9.94 0h-19.9m-9.93 0H1908l-1.25-.1-1.22-.3-1.16-.47-1.07-.66-.96-.8-.8-.97-.67-1.07-.48-1.16-.3-1.22-.1-1.25v-10.22m0-10.22V751.1m0-10.2v-20.46m0-10.22v-20.44m0-10.22V659.1m0-10.2v-20.46m0-10.22v-20.44m0-10.22V567.1m0-10.2v-20.46m0-10.22v-20.44m0-10.22V475.1m0-10.2v-20.46m0-10.22v-20.44m0-10.22V383.1m0-10.2v-20.46m0-10.22v-20.44m0-10.22V291.1m0-10.2v-20.46m0-10.22v-20.44m0-10.22V199.1m0-10.2v-20.46m0-10.22V148l.1-1.25.3-1.22.47-1.16.66-1.07.8-.96.97-.8 1.07-.67 1.16-.48 1.22-.3 1.25-.1h9.95" stroke="#333" stroke-width="2" fill="none"/><path d="M1980 508a8 8 0 0 1 8-8h684a8 8 0 0 1 8 8v264a8 8 0 0 1-8 8h-684a8 8 0 0 1-8-8z" fill="#dcf5f5" fill-opacity=".98"/><path d="M2007.83 500h19.82m9.9 0h19.84m9.9 0h19.83m9.9 0h19.84m9.9 0h19.84m9.92 0h19.83m9.9 0h19.84m9.9 0h19.83m9.9 0h19.84m9.9 0h19.83m9.92 0h19.82m9.92 0h19.82m9.92 0h19.82m9.9 0h19.84m9.9 0H2444m9.9 0h19.84m9.9 0h19.84m9.9 0h19.84m9.9 0h19.84m9.9 0h19.84m9.9 0h19.84m9.9 0h19.83m9.92 0h9.9l1.25.1 1.22.3 1.16.47 1.07.66.96.8.8.97.67 1.07.48 1.16.3 1.22.1 1.25v9.78m0 9.78v19.55m0 9.8v19.54m0 9.78v19.56m0 9.78v19.55m0 9.8v19.54m0 9.78v19.56m0 9.78v19.55m0 9.8v19.54m0 9.78V772l-.1 1.25-.3 1.22-.47 1.16-.66 1.07-.8.96-.97.8-1.07.67-1.16.48-1.22.3-1.25.1h-9.9m-9.93 0h-19.82m-9.9 0h-19.84m-9.9 0h-19.83m-9.9 0h-19.84m-9.9 0h-19.84m-9.92 0h-19.83m-9.9 0h-19.84m-9.9 0h-19.83m-9.9 0h-19.84m-9.9 0h-19.83m-9.92 0h-19.82m-9.92 0h-19.82m-9.92 0h-19.82m-9.9 0h-19.84m-9.9 0H2216m-9.9 0h-19.84m-9.9 0h-19.84m-9.9 0h-19.84m-9.9 0h-19.84m-9.9 0h-19.84m-9.9 0h-19.84m-9.9 0h-19.83m-9.92 0h-9.9l-1.25-.1-1.22-.3-1.16-.47-1.07-.66-.96-.8-.8-.97-.67-1.07-.48-1.16-.3-1.22-.1-1.25v-9.78m0-9.78V732.9m0-9.8v-19.54m0-9.78v-19.56m0-9.78V644.9m0-9.8v-19.54m0-9.78v-19.56m0-9.78V556.9m0-9.8v-19.54m0-9.78V508l.1-1.25.3-1.22.47-1.16.66-1.07.8-.96.97-.8 1.07-.67 1.16-.48 1.22-.3 1.25-.1h9.9" stroke="#333" stroke-width="2" fill="none"/><path d="M1920 168a8 8 0 0 1 8-8h804a8 8 0 0 1 8 8v304a8 8 0 0 1-8 8h-804a8 8 0 0 1-8-8z" fill="#ffe6be" fill-opacity=".98"/><path d="M1947.85 160h19.85m9.93 0h19.85m9.93 0h19.86m9.92 0h19.86m9.92 0h19.86m9.92 0h19.85m9.92 0h19.85m9.93 0h19.85m9.92 0h19.86m9.92 0h19.85m9.93 0h19.85m9.93 0h19.86m9.92 0h19.86m9.92 0h19.86m9.92 0h19.85m9.92 0h19.85m9.93 0h19.85m9.92 0h19.86m9.92 0h19.85m9.93 0h19.85m9.93 0h19.86m9.92 0h19.86m9.92 0h19.86m9.92 0h19.85m9.92 0h19.85m9.93 0h19.85m9.92 0h9.93l1.25.1 1.22.3 1.16.47 1.07.66.96.8.8.97.67 1.07.48 1.16.3 1.22.1 1.25v10.13m0 10.14v20.26m0 10.14v20.26m0 10.14v20.26m0 10.14v20.26m0 10.14v20.26m0 10.14v20.26m0 10.14v20.26m0 10.14v20.26m0 10.14v20.26m0 10.14V472l-.1 1.25-.3 1.22-.47 1.16-.66 1.07-.8.96-.97.8-1.07.67-1.16.48-1.22.3-1.25.1h-9.93m-9.92 0h-19.85m-9.93 0h-19.85m-9.93 0h-19.86m-9.92 0h-19.86m-9.92 0h-19.86m-9.92 0h-19.85m-9.92 0h-19.85m-9.93 0h-19.85m-9.92 0h-19.86m-9.92 0h-19.85m-9.93 0h-19.85m-9.93 0h-19.86m-9.92 0h-19.86m-9.92 0h-19.86m-9.92 0h-19.85m-9.92 0h-19.85m-9.93 0h-19.85m-9.92 0h-19.86m-9.92 0h-19.85m-9.93 0h-19.85m-9.93 0h-19.86m-9.92 0h-19.86m-9.92 0h-19.86m-9.92 0h-19.85m-9.92 0h-19.85m-9.93 0h-19.85m-9.92 0H1928l-1.25-.1-1.22-.3-1.16-.47-1.07-.66-.96-.8-.8-.97-.67-1.07-.48-1.16-.3-1.22-.1-1.25v-10.13m0-10.14v-20.26m0-10.14v-20.26m0-10.14v-20.26m0-10.14v-20.26m0-10.14v-20.26m0-10.14v-20.26m0-10.14v-20.26m0-10.14v-20.26m0-10.14v-20.26m0-10.14V168l.1-1.25.3-1.22.47-1.16.66-1.07.8-.96.97-.8 1.07-.67 1.16-.48 1.22-.3 1.25-.1h9.93" stroke="#333" stroke-width="2" fill="none"/><path d="M1957.2 239.38a10.4 10.4 0 0 1 10.06-7.73H2092a6.15 6.15 0 0 1 5.94 7.73l-15.14 56.77a10.4 10.4 0 0 1-10.06 7.73H1948a6.15 6.15 0 0 1-5.94-7.73z" stroke="#ffa0a0" stroke-width="2" fill="#ffa0a0"/><use xlink:href="#a" transform="matrix(1,0,0,1,1945.0000000000002,236.65341581479476) translate(24.69580078125 38.0478515625)"/><use xlink:href="#b" transform="matrix(1,0,0,1,1945.0000000000002,236.65341581479476) translate(78.86279296875 38.0478515625)"/><path d="M2091.9 267.77H2122.6" stroke="#333" fill="none"/><path d="M2091.92 268.24h-.64l.25-.95h.4z" stroke="#333" stroke-width=".05" fill="#333"/><path d="M2137.38 267.77l-14.27 4.63v-9.27z" stroke="#333" fill="#333"/><path d="M2140 235.77a8 8 0 0 1 8-8h144a8 8 0 0 1 8 8v64a8 8 0 0 1-8 8h-144a8 8 0 0 1-8-8z" stroke="#ffa0a0" stroke-width="2" fill="#ffa0a0"/><use xlink:href="#c" transform="matrix(1,0,0,1,2145.0000000000005,232.76894387652976) translate(8.22509765625 30.658203125)"/><use xlink:href="#d" transform="matrix(1,0,0,1,2145.0000000000005,232.76894387652976) translate(23.28515625 52.4375)"/><use xlink:href="#e" transform="matrix(1,0,0,1,2145.0000000000005,232.76894387652976) translate(49.86328125 52.4375)"/><use xlink:href="#f" transform="matrix(1,0,0,1,2145.0000000000005,232.76894387652976) translate(79.5791015625 52.4375)"/><path d="M2360 288a8 8 0 0 1 8-8h164a8 8 0 0 1 8 8v104a8 8 0 0 1-8 8h-164a8 8 0 0 1-8-8z" stroke="#ffa0a0" stroke-width="2" fill="#ffa0a0"/><use xlink:href="#g" transform="matrix(1,0,0,1,2365.0000000000005,285) translate(12.37158203125 28.87890625)"/><use xlink:href="#h" transform="matrix(1,0,0,1,2365.0000000000005,285) translate(100.00732421875 28.87890625)"/><use xlink:href="#d" transform="matrix(1,0,0,1,2365.0000000000005,285) translate(23.107421875 50.658203125)"/><use xlink:href="#i" transform="matrix(1,0,0,1,2365.0000000000005,285) translate(49.685546875 50.658203125)"/><use xlink:href="#j" transform="matrix(1,0,0,1,2365.0000000000005,285) translate(14.0458984375 72.4375)"/><use xlink:href="#k" transform="matrix(1,0,0,1,2365.0000000000005,285) translate(94.333984375 72.4375)"/><use xlink:href="#l" transform="matrix(1,0,0,1,2365.0000000000005,285) translate(145.837890625 72.4375)"/><use xlink:href="#m" transform="matrix(1,0,0,1,2365.0000000000005,285) translate(8.798828125 94.216796875)"/><use xlink:href="#n" transform="matrix(1,0,0,1,2365.0000000000005,285) translate(48.6484375 94.216796875)"/><use xlink:href="#o" transform="matrix(1,0,0,1,2365.0000000000005,285) translate(74.83984375 94.216796875)"/><use xlink:href="#p" transform="matrix(1,0,0,1,2365.0000000000005,285) translate(101.1806640625 94.216796875)"/><path d="M2541.5 340h23.8" stroke="#333" fill="none"/><path d="M2541.5 340.48h-.5v-.96h.5z" stroke="#333" stroke-width=".05" fill="#333"/><path d="M2580.05 340l-14.26 4.63v-9.26z" stroke="#333" fill="#333"/><path d="M2643.93 285.2a9.33 9.33 0 0 1 12.14 0l57.86 49.6a6.86 6.86 0 0 1 0 10.4l-57.86 49.6a9.33 9.33 0 0 1-12.14 0l-57.86-49.6a6.86 6.86 0 0 1 0-10.4z" stroke="#d66161" stroke-width="4" fill-opacity="0"/><use xlink:href="#q" transform="matrix(1,0,0,1,2585,285) translate(12.93359375 61.5478515625)"/><path d="M2301.5 267.77h16.5a12 12 0 0 1 12 12V328a12 12 0 0 0 12 12h.62" stroke="#333" fill="none"/><path d="M2301.5 268.24h-.5v-.95h.5z" stroke="#333" stroke-width=".05" fill="#333"/><path d="M2357.38 340l-14.26 4.63v-9.26z" stroke="#333" fill="#333"/><path d="M2291.9 416.12h21.3a12 12 0 0 0 12-12V352a12 12 0 0 1 12-12h5.42" stroke="#333" fill="none"/><path d="M2291.92 416.6h-.64l.25-.96h.4z" stroke="#333" stroke-width=".05" fill="#333"/><path d="M2357.38 340l-14.26 4.63v-9.26z" stroke="#333" fill="#333"/><path d="M2769.64 340.48h-50.8v-.96h50.8zm32.98 0h-17.07v-.96h17.07z" stroke="#333" stroke-width=".05" fill="#333"/><path d="M2718.84 340.48h-.55l.03-.48-.04-.48h.54z" fill="#333"/><path stroke="#333" stroke-width=".05" fill="#333"/><path d="M2817.38 340l-14.26 4.63v-9.26z" fill="#333"/><path d="M2818.92 340l-16.28 5.3v-10.6zm-15.33 3.98l12.25-3.98-12.26-3.98z" stroke="#333" stroke-width=".05" fill="#333"/><use xlink:href="#r" transform="matrix(1,0,0,1,2769.6440370754854,329.1103515625) translate(0.004999999999999893 17.4375)"/><path d="M3005 340c0 27.6-41.4 50-92.5 50s-92.5-22.4-92.5-50 41.4-50 92.5-50 92.5 22.4 92.5 50z" stroke="#ffa0a0" stroke-width="2" fill="#ffa0a0"/><use xlink:href="#s" transform="matrix(1,0,0,1,2825.0000000000005,295) translate(34.98974609375 29.7685546875)"/><use xlink:href="#t" transform="matrix(1,0,0,1,2825.0000000000005,295) translate(118.49462890625 29.7685546875)"/><use xlink:href="#u" transform="matrix(1,0,0,1,2825.0000000000005,295) translate(20.3427734375 51.5478515625)"/><use xlink:href="#v" transform="matrix(1,0,0,1,2825.0000000000005,295) translate(53.79833984375 73.3271484375)"/><path d="M2573.04 440.48h-131.02l-1.82.14-1.76.42-1.67.7-1.54.94-1.38 1.17-1.17 1.38-.95 1.54-.7 1.67-.4 1.76-.16 1.82v91.94h-.94v-91.98l.15-1.93.45-1.9.75-1.8 1.03-1.68 1.28-1.5 1.5-1.26 1.66-1.02 1.8-.75 1.9-.45 1.94-.16h131.06zm77.43-12.46l-.15 1.93-.45 1.9-.75 1.8-1.03 1.68-1.28 1.5-1.5 1.26-1.66 1.02-1.8.75-1.9.45-1.94.16h-40.63v-.96h40.58l1.82-.14 1.76-.42 1.67-.7 1.54-.94 1.38-1.17 1.17-1.38.95-1.54.7-1.67.4-1.76.16-1.82v-28.43h.94z" stroke="#333" stroke-width=".05" fill="#333"/><path d="M2650 399.05l.47-.04v.56h-.94V399z" fill="#333"/><path stroke="#333" stroke-width=".05" fill="#333"/><path d="M2430 558.73l-4.64-14.27h9.28z" fill="#333"/><path d="M2430 560.27l-5.3-16.28h10.6zm-3.98-15.33l3.98 12.25 3.98-12.26z" stroke="#333" stroke-width=".05" fill="#333"/><use xlink:href="#w" transform="matrix(1,0,0,1,2573.038435069126,429.1103515625) translate(0.005000000000000782 17.4375)"/><path d="M2360 569.35a8 8 0 0 1 8-8h124a8 8 0 0 1 8 8v53.75a8 8 0 0 1-8 8h-124a8 8 0 0 1-8-8z" stroke="#ffa0a0" stroke-width="2" fill="#ffa0a0"/><use xlink:href="#x" transform="matrix(1,0,0,1,2365.0000000000005,566.3465328441364) translate(20.369140625 25.658203125)"/><use xlink:href="#y" transform="matrix(1,0,0,1,2365.0000000000005,566.3465328441364) translate(84.9775390625 25.658203125)"/><use xlink:href="#z" transform="matrix(1,0,0,1,2365.0000000000005,566.3465328441364) translate(15.68017578125 47.4375)"/><use xlink:href="#A" transform="matrix(1,0,0,1,2365.0000000000005,566.3465328441364) translate(67.87841796875 47.4375)"/><path d="M2340 179.97a8 8 0 0 1 8-8h344a8 8 0 0 1 8 8v39.8a8 8 0 0 1-8 8h-344a8 8 0 0 1-8-8z" fill="none"/><use xlink:href="#B" transform="matrix(1,0,0,1,2340.0000000000005,171.96511825376217) translate(62.15625 23.658203125)"/><use xlink:href="#C" transform="matrix(1,0,0,1,2340.0000000000005,171.96511825376217) translate(165.0322265625 23.658203125)"/><use xlink:href="#D" transform="matrix(1,0,0,1,2340.0000000000005,171.96511825376217) translate(184.623046875 23.658203125)"/><use xlink:href="#E" transform="matrix(1,0,0,1,2340.0000000000005,171.96511825376217) translate(275.7744140625 23.658203125)"/><use xlink:href="#F" transform="matrix(1,0,0,1,2340.0000000000005,171.96511825376217) translate(12.111328125 45.4375)"/><use xlink:href="#G" transform="matrix(1,0,0,1,2340.0000000000005,171.96511825376217) translate(156.6474609375 45.4375)"/><use xlink:href="#H" transform="matrix(1,0,0,1,2340.0000000000005,171.96511825376217) translate(231.943359375 45.4375)"/><use xlink:href="#I" transform="matrix(1,0,0,1,2340.0000000000005,171.96511825376217) translate(258.134765625 45.4375)"/><use xlink:href="#J" transform="matrix(1,0,0,1,2340.0000000000005,171.96511825376217) translate(311.73046875 45.4375)"/><path d="M2157.2 387.73a10.4 10.4 0 0 1 10.06-7.73H2292a6.15 6.15 0 0 1 5.94 7.73l-15.14 56.77a10.4 10.4 0 0 1-10.06 7.73H2148a6.15 6.15 0 0 1-5.94-7.73z" stroke="#ffa0a0" stroke-width="2" fill="#ffa0a0"/><use xlink:href="#K" transform="matrix(1,0,0,1,2145.0000000000005,385.00000000000006) translate(30.52294921875 38.0478515625)"/><use xlink:href="#L" transform="matrix(1,0,0,1,2145.0000000000005,385.00000000000006) translate(84.68994140625 38.0478515625)"/><path d="M2220 453.73V547.7" stroke="#333" fill="none"/><path d="M2220.47 453.74h-.94v-.5h.94z" stroke="#333" stroke-width=".05" fill="#333"/><path d="M2220 562.48l-4.64-14.27h9.28z" stroke="#333" fill="#333"/><path d="M2358.5 596.22H2319.12" stroke="#333" fill="none"/><path d="M2359 596.7h-.5v-.95h.5z" stroke="#333" stroke-width=".05" fill="#333"/><path d="M2304.35 596.22l14.27-4.63v9.26z" stroke="#333" fill="#333"/><path d="M2144.54 572.83a10.4 10.4 0 0 1 10.06-7.73H2302a6.15 6.15 0 0 1 5.94 7.73l-12.48 46.8a10.4 10.4 0 0 1-10.06 7.72H2138a6.15 6.15 0 0 1-5.94-7.73z" stroke="#ffa0a0" stroke-width="2" fill="#ffa0a0"/><g><use xlink:href="#M" transform="matrix(1,0,0,1,2135,570.09653284412) translate(37.6708984375 22.158203125)"/><use xlink:href="#N" transform="matrix(1,0,0,1,2135,570.09653284412) translate(106.4541015625 22.158203125)"/><use xlink:href="#O" transform="matrix(1,0,0,1,2135,570.09653284412) translate(46.521484375 43.9375)"/></g><path d="M2220 628.85v8.8a12 12 0 0 1-12 12h-113.1a4.9 4.9 0 0 0-4.9 4.9" stroke="#333" fill="none"/><path d="M2220.47 628.86h-.94v-.5h.94z" stroke="#333" stroke-width=".05" fill="#333"/><path d="M2090 669.3l-4.64-14.26h9.28z" stroke="#333" fill="#333"/><path d="M2005 679.93a8 8 0 0 1 8-8h154a8 8 0 0 1 8 8v61.43a8 8 0 0 1-8 8h-154a8 8 0 0 1-8-8z" stroke="#ffa0a0" stroke-width="2" fill="#ffa0a0"/><g><use xlink:href="#P" transform="matrix(1,0,0,1,2010,676.9272325700258) translate(35.82958984375 29.658203125)"/><use xlink:href="#Q" transform="matrix(1,0,0,1,2010,676.9272325700258) translate(110.70361328125 29.658203125)"/><use xlink:href="#R" transform="matrix(1,0,0,1,2010,676.9272325700258) translate(18.466796875 51.4375)"/><use xlink:href="#S" transform="matrix(1,0,0,1,2010,676.9272325700258) translate(107.74609375 51.4375)"/></g><path d="M2176.5 710.64h31.1" stroke="#333" fill="none"/><path d="M2176.5 711.12h-.5v-.95h.5z" stroke="#333" stroke-width=".05" fill="#333"/><path d="M2222.38 710.64l-14.27 4.64V706z" stroke="#333" fill="#333"/><path d="M2455 668.2a8 8 0 0 1 8-8h184a8 8 0 0 1 8 8v84.9a8 8 0 0 1-8 8h-184a8 8 0 0 1-8-8z" stroke="#ffa0a0" stroke-width="2" fill="#ffa0a0"/><g><use xlink:href="#T" transform="matrix(1,0,0,1,2460,665.1993998207741) translate(25.72802734375 19.37890625)"/><use xlink:href="#U" transform="matrix(1,0,0,1,2460,665.1993998207741) translate(90.57373046875 19.37890625)"/><use xlink:href="#t" transform="matrix(1,0,0,1,2460,665.1993998207741) translate(143.75634765625 19.37890625)"/><use xlink:href="#V" transform="matrix(1,0,0,1,2460,665.1993998207741) translate(6.75244140625 41.158203125)"/><use xlink:href="#W" transform="matrix(1,0,0,1,2460,665.1993998207741) translate(109.02197265625 41.158203125)"/><use xlink:href="#X" transform="matrix(1,0,0,1,2460,665.1993998207741) translate(22.92431640625 62.9375)"/><use xlink:href="#Y" transform="matrix(1,0,0,1,2460,665.1993998207741) translate(118.11865234375 62.9375)"/><use xlink:href="#Z" transform="matrix(1,0,0,1,2460,665.1993998207741) translate(157.96826171875 62.9375)"/><use xlink:href="#U" transform="matrix(1,0,0,1,2460,665.1993998207741) translate(27.07275390625 84.716796875)"/><use xlink:href="#aa" transform="matrix(1,0,0,1,2460,665.1993998207741) translate(80.25537109375 84.716796875)"/></g><path d="M2040 518.7a8 8 0 0 1 8-8h164a8 8 0 0 1 8 8v27.68a8 8 0 0 1-8 8h-164a8 8 0 0 1-8-8z" fill="none"/><g><use xlink:href="#ab" transform="matrix(1,0,0,1,2040,510.71163321102915) translate(12.83642578125 17.658203125)"/><use xlink:href="#ac" transform="matrix(1,0,0,1,2040,510.71163321102915) translate(114.83349609375 17.658203125)"/><use xlink:href="#ad" transform="matrix(1,0,0,1,2040,510.71163321102915) translate(141.16552734375 17.658203125)"/><use xlink:href="#I" transform="matrix(1,0,0,1,2040,510.71163321102915) translate(45.123046875 39.4375)"/><use xlink:href="#J" transform="matrix(1,0,0,1,2040,510.71163321102915) translate(98.71875 39.4375)"/></g><path d="M2890 709.5c0 28.5-38.06 51.6-85 51.6s-85-23.1-85-51.6 38.06-51.6 85-51.6 85 23.1 85 51.6z" stroke="#ffa0a0" stroke-width="2" fill="#ffa0a0"/><g><use xlink:href="#ae" transform="matrix(1,0,0,1,2725,662.9035356106849) translate(36.02294921875 42.658203125)"/><use xlink:href="#af" transform="matrix(1,0,0,1,2725,662.9035356106849) translate(90.18994140625 42.658203125)"/><use xlink:href="#ag" transform="matrix(1,0,0,1,2725,662.9035356106849) translate(34.59033203125 64.4375)"/></g><path d="M2656.5 709.5h46.12" stroke="#333" fill="none"/><path d="M2656.5 709.97h-.5v-.95h.5z" stroke="#333" stroke-width=".05" fill="#333"/><path d="M2717.38 709.5l-14.26 4.63v-9.27z" stroke="#333" fill="#333"/><path d="M2225 680.98a8 8 0 0 1 8-8h164a8 8 0 0 1 8 8v59.33a8 8 0 0 1-8 8h-164a8 8 0 0 1-8-8z" stroke="#ffa0a0" stroke-width="2" fill="#ffa0a0"/><g><use xlink:href="#ah" transform="matrix(1,0,0,1,2230,677.9750841325216) translate(28.46875 17.7685546875)"/><use xlink:href="#ai" transform="matrix(1,0,0,1,2230,677.9750841325216) translate(126.677734375 17.7685546875)"/><use xlink:href="#u" transform="matrix(1,0,0,1,2230,677.9750841325216) translate(17.8427734375 39.5478515625)"/><use xlink:href="#v" transform="matrix(1,0,0,1,2230,677.9750841325216) translate(51.29833984375 61.3271484375)"/></g><path d="M2406.5 710.64h31.12" stroke="#333" fill="none"/><path d="M2406.5 711.12h-.5v-.95h.5z" stroke="#333" stroke-width=".05" fill="#333"/><path d="M2452.38 710.64l-14.26 4.64V706z" stroke="#333" fill="#333"/><defs><path d="M645 0H180v-1490h484c435 0 692 280 692 742 0 466-257 748-711 748zM370-168h263c363 0 539-218 539-580 0-358-176-574-521-574H370v1154" id="aj"/><path d="M471 26C259 26 90-98 90-318c0-256 228-303 435-329 202-27 287-16 287-108 0-139-79-219-234-219-161 0-248 86-283 164l-173-57c86-203 278-265 451-265 150 0 419 46 419 395V0H815v-152h-12C765-73 660 26 471 26zm31-159c199 0 310-134 310-271v-155c-30 35-226 55-295 64-131 17-246 59-246 186 0 116 97 176 231 176" id="ak"/><path d="M598-1118v154H368v674c0 100 37 144 132 144 23 0 62-6 92-12L629-6c-37 13-88 20-134 20-193 0-307-107-307-290v-688H20v-154h168v-266h180v266h230" id="al"/><path d="M613 24c-304 0-509-231-509-576 0-350 205-580 509-580 305 0 511 230 511 580 0 345-206 576-511 576zm0-161c226 0 329-195 329-415 0-222-103-419-329-419-223 0-326 196-326 419 0 220 103 415 326 415" id="am"/><path d="M538 24C308 24 148-78 108-271l171-41c32 123 123 178 257 178 156 0 256-77 256-169 0-77-54-128-164-154l-186-44c-203-48-300-148-300-305 0-192 176-326 414-326 230 0 351 112 402 269l-163 42c-31-80-94-158-238-158-133 0-233 69-233 162 0 83 57 129 188 160l169 40c203 48 298 149 298 302 0 196-179 339-441 339" id="an"/><g id="a"><use transform="matrix(0.0087890625,0,0,0.0087890625,0,0)" xlink:href="#aj"/><use transform="matrix(0.0087890625,0,0,0.0087890625,12.990234375,0)" xlink:href="#ak"/><use transform="matrix(0.0087890625,0,0,0.0087890625,23.09765625,0)" xlink:href="#al"/><use transform="matrix(0.0087890625,0,0,0.0087890625,28.810546875,0)" xlink:href="#am"/><use transform="matrix(0.0087890625,0,0,0.0087890625,39.603515625,0)" xlink:href="#an"/></g><path d="M657 26c-323 0-524-166-541-416h195c15 169 171 246 346 246 202 0 356-106 356-265 5-203-294-238-475-293-239-73-380-191-380-389 0-252 224-419 512-419 294 0 499 171 508 396H992c-17-145-151-228-328-228-193 0-321 102-321 242 0 156 175 211 284 241l149 41c160 44 422 134 422 412 0 244-197 432-541 432" id="ao"/><path d="M180 0v-1490h908v168H370v486h669v168H370v500h727V0H180" id="ap"/><path d="M98-1322v-168h1126v168H757V0H567v-1322H98" id="aq"/><g id="b"><use transform="matrix(0.0087890625,0,0,0.0087890625,0,0)" xlink:href="#ao"/><use transform="matrix(0.0087890625,0,0,0.0087890625,11.548828125,0)" xlink:href="#ap"/><use transform="matrix(0.0087890625,0,0,0.0087890625,22.3681640625,0)" xlink:href="#aj"/><use transform="matrix(0.0087890625,0,0,0.0087890625,34.822265625,0)" xlink:href="#aq"/></g><path d="M158 0v-1118h174v172h12c41-113 157-188 290-188 26 0 70 2 91 3v181c-11-2-60-10-108-10-161 0-279 109-279 260V0H158" id="ar"/><path d="M338-670V0H158v-1118h173l1 207c72-158 192-221 342-221 226 0 378 139 378 422V0H872v-695c0-172-96-275-252-275-161 0-282 109-282 300" id="as"/><path d="M678-1118v154H420V0H240v-964H20v-154h220v-149c0-194 155-293 318-293 85 0 141 18 168 30l-50 154c-19-6-47-17-97-17-111 0-159 58-159 166v109h258" id="at"/><path d="M158 0v-1118h175l1 205c55-151 181-225 313-225 147 0 245 90 285 228 53-141 190-228 352-228 194 0 352 125 352 384V0h-181v-749c0-161-105-225-225-225-151 0-243 103-243 244V0H807v-767c0-124-93-207-219-207-131 0-250 92-250 270V0H158" id="au"/><path d="M613 24c-304 0-509-231-509-576 0-350 205-580 509-580 216 0 392 114 453 309l-173 49c-33-115-133-197-280-197-223 0-326 196-326 419 0 220 103 415 326 415 150 0 252-85 285-206l172 49C1010-95 832 24 613 24" id="av"/><path d="M158 0v-1118h180V0H158zm91-1301c-68 0-125-53-125-119s57-119 125-119c69 0 126 53 126 119s-57 119-126 119" id="aw"/><path d="M613 24c-304 0-509-231-509-576 0-350 205-580 509-580 305 0 511 230 511 580 0 345-206 576-511 576zm0-161c226 0 329-195 329-415 0-222-103-419-329-419-223 0-326 196-326 419 0 220 103 415 326 415zm-79-1127l140-294h201l-194 294H534" id="ax"/><g id="c"><use transform="matrix(0.0087890625,0,0,0.0087890625,0,0)" xlink:href="#aq"/><use transform="matrix(0.0087890625,0,0,0.0087890625,10.599609375,0)" xlink:href="#ar"/><use transform="matrix(0.0087890625,0,0,0.0087890625,17.3759765625,0)" xlink:href="#ak"/><use transform="matrix(0.0087890625,0,0,0.0087890625,27.4833984375,0)" xlink:href="#as"/><use transform="matrix(0.0087890625,0,0,0.0087890625,38.1181640625,0)" xlink:href="#an"/><use transform="matrix(0.0087890625,0,0,0.0087890625,47.619140625,0)" xlink:href="#at"/><use transform="matrix(0.0087890625,0,0,0.0087890625,53.75390625,0)" xlink:href="#am"/><use transform="matrix(0.0087890625,0,0,0.0087890625,64.546875,0)" xlink:href="#ar"/><use transform="matrix(0.0087890625,0,0,0.0087890625,71.6044921875,0)" xlink:href="#au"/><use transform="matrix(0.0087890625,0,0,0.0087890625,87.3720703125,0)" xlink:href="#ak"/><use transform="matrix(0.0087890625,0,0,0.0087890625,97.4794921875,0)" xlink:href="#av"/><use transform="matrix(0.0087890625,0,0,0.0087890625,107.7626953125,0)" xlink:href="#aw"/><use transform="matrix(0.0087890625,0,0,0.0087890625,112.1220703125,0)" xlink:href="#ax"/><use transform="matrix(0.0087890625,0,0,0.0087890625,122.9150390625,0)" xlink:href="#as"/></g><path d="M577 24c-279 0-473-224-473-580 0-354 195-576 474-576 218 0 287 134 324 193h14v-551h180V0H922v-173h-20C865-111 790 24 577 24zm27-161c203 0 314-172 314-421 0-247-108-413-314-413-212 0-317 181-317 413 0 235 108 421 317 421" id="ay"/><path d="M628 24c-324 0-524-230-524-574 0-343 198-582 503-582 237 0 487 146 487 559v75H286c9 234 145 362 343 362 132 0 231-58 273-172l174 48C1024-91 857 24 628 24zM287-650h624c-17-190-120-322-304-322-192 0-309 151-320 322" id="az"/><g id="d"><use transform="matrix(0.0087890625,0,0,0.0087890625,0,0)" xlink:href="#ay"/><use transform="matrix(0.0087890625,0,0,0.0087890625,11.021484375,0)" xlink:href="#az"/></g><path d="M338-1490V0H158v-1490h180" id="aA"/><g id="e"><use transform="matrix(0.0087890625,0,0,0.0087890625,0,0)" xlink:href="#aA"/><use transform="matrix(0.0087890625,0,0,0.0087890625,4.359375,0)" xlink:href="#am"/><use transform="matrix(0.0087890625,0,0,0.0087890625,15.15234375,0)" xlink:href="#an"/></g><g id="f"><use transform="matrix(0.0087890625,0,0,0.0087890625,0,0)" xlink:href="#ay"/><use transform="matrix(0.0087890625,0,0,0.0087890625,11.021484375,0)" xlink:href="#ak"/><use transform="matrix(0.0087890625,0,0,0.0087890625,21.12890625,0)" xlink:href="#al"/><use transform="matrix(0.0087890625,0,0,0.0087890625,26.841796875,0)" xlink:href="#am"/><use transform="matrix(0.0087890625,0,0,0.0087890625,37.634765625,0)" xlink:href="#an"/></g><path d="M600 0L52-1490h200c166 485 304 806 458 1336 156-533 285-846 449-1336h202L819 0H600" id="aB"/><path d="M537 14c-226 0-379-139-379-422v-710h180v695c0 172 97 275 253 275 160 0 281-109 281-300v-670h181V0H879v-209C806-46 684 14 537 14" id="aC"/><path d="M126 0v-134l627-806v-11H146v-167h839v143L376-178v11h629V0H126" id="aD"/><g id="g"><use transform="matrix(0.0087890625,0,0,0.0087890625,0,0)" xlink:href="#aB"/><use transform="matrix(0.0087890625,0,0,0.0087890625,12.4189453125,0)" xlink:href="#aw"/><use transform="matrix(0.0087890625,0,0,0.0087890625,16.7783203125,0)" xlink:href="#an"/><use transform="matrix(0.0087890625,0,0,0.0087890625,26.279296875,0)" xlink:href="#aC"/><use transform="matrix(0.0087890625,0,0,0.0087890625,36.9228515625,0)" xlink:href="#ak"/><use transform="matrix(0.0087890625,0,0,0.0087890625,47.0302734375,0)" xlink:href="#aA"/><use transform="matrix(0.0087890625,0,0,0.0087890625,51.3896484375,0)" xlink:href="#aw"/><use transform="matrix(0.0087890625,0,0,0.0087890625,55.7490234375,0)" xlink:href="#aD"/><use transform="matrix(0.0087890625,0,0,0.0087890625,65.689453125,0)" xlink:href="#ak"/><use transform="matrix(0.0087890625,0,0,0.0087890625,75.796875,0)" xlink:href="#ar"/></g><path d="M481 0L54-1118h197c107 314 236 620 325 951 87-331 217-637 324-951h197L670 0H481" id="aE"/><g id="h"><use transform="matrix(0.0087890625,0,0,0.0087890625,0,0)" xlink:href="#av"/><use transform="matrix(0.0087890625,0,0,0.0087890625,10.283203125,0)" xlink:href="#aC"/><use transform="matrix(0.0087890625,0,0,0.0087890625,20.9267578125,0)" xlink:href="#ar"/><use transform="matrix(0.0087890625,0,0,0.0087890625,27.984375,0)" xlink:href="#aE"/><use transform="matrix(0.0087890625,0,0,0.0087890625,38.0126953125,0)" xlink:href="#ak"/><use transform="matrix(0.0087890625,0,0,0.0087890625,48.1201171875,0)" xlink:href="#an"/></g><g id="i"><use transform="matrix(0.0087890625,0,0,0.0087890625,0,0)" xlink:href="#ar"/><use transform="matrix(0.0087890625,0,0,0.0087890625,6.4775390625,0)" xlink:href="#az"/><use transform="matrix(0.0087890625,0,0,0.0087890625,16.9716796875,0)" xlink:href="#an"/><use transform="matrix(0.0087890625,0,0,0.0087890625,26.47265625,0)" xlink:href="#aw"/><use transform="matrix(0.0087890625,0,0,0.0087890625,30.83203125,0)" xlink:href="#an"/><use transform="matrix(0.0087890625,0,0,0.0087890625,40.3330078125,0)" xlink:href="#al"/><use transform="matrix(0.0087890625,0,0,0.0087890625,46.2216796875,0)" xlink:href="#aw"/><use transform="matrix(0.0087890625,0,0,0.0087890625,50.5810546875,0)" xlink:href="#aE"/><use transform="matrix(0.0087890625,0,0,0.0087890625,60.697265625,0)" xlink:href="#aw"/><use transform="matrix(0.0087890625,0,0,0.0087890625,65.056640625,0)" xlink:href="#ay"/><use transform="matrix(0.0087890625,0,0,0.0087890625,76.078125,0)" xlink:href="#ak"/><use transform="matrix(0.0087890625,0,0,0.0087890625,86.185546875,0)" xlink:href="#ay"/></g><path d="M158 418v-1536h174v179h20c37-59 106-193 324-193 279 0 474 222 474 576 0 356-194 580-473 580-213 0-288-135-325-197h-14v591H158zm492-555c209 0 317-186 317-421 0-232-105-413-317-413-206 0-314 166-314 413 0 249 111 421 314 421" id="aF"/><g id="j"><use transform="matrix(0.0087890625,0,0,0.0087890625,0,0)" xlink:href="#ak"/><use transform="matrix(0.0087890625,0,0,0.0087890625,10.107421875,0)" xlink:href="#aF"/><use transform="matrix(0.0087890625,0,0,0.0087890625,21.3046875,0)" xlink:href="#ak"/><use transform="matrix(0.0087890625,0,0,0.0087890625,31.412109375,0)" xlink:href="#ar"/><use transform="matrix(0.0087890625,0,0,0.0087890625,37.8896484375,0)" xlink:href="#az"/><use transform="matrix(0.0087890625,0,0,0.0087890625,48.3837890625,0)" xlink:href="#as"/><use transform="matrix(0.0087890625,0,0,0.0087890625,59.0185546875,0)" xlink:href="#al"/><use transform="matrix(0.0087890625,0,0,0.0087890625,64.7314453125,0)" xlink:href="#az"/></g><g id="k"><use transform="matrix(0.0087890625,0,0,0.0087890625,0,0)" xlink:href="#ao"/><use transform="matrix(0.0087890625,0,0,0.0087890625,11.548828125,0)" xlink:href="#ap"/><use transform="matrix(0.0087890625,0,0,0.0087890625,22.3681640625,0)" xlink:href="#aj"/><use transform="matrix(0.0087890625,0,0,0.0087890625,34.822265625,0)" xlink:href="#aq"/></g><path d="M140 405l46-156c120 36 205 19 263-150l32-93L54-1118h197c107 313 237 620 324 950 87-331 219-637 326-950h196L606 167c-68 178-176 259-334 259-64 0-113-12-132-21" id="aG"/><use transform="matrix(0.0087890625,0,0,0.0087890625,0,0)" xlink:href="#aG" id="l"/><g id="m"><use transform="matrix(0.0087890625,0,0,0.0087890625,0,0)" xlink:href="#ao"/><use transform="matrix(0.0087890625,0,0,0.0087890625,11.548828125,0)" xlink:href="#ap"/><use transform="matrix(0.0087890625,0,0,0.0087890625,22.3681640625,0)" xlink:href="#aB"/></g><g id="n"><use transform="matrix(0.0087890625,0,0,0.0087890625,0,0)" xlink:href="#az"/><use transform="matrix(0.0087890625,0,0,0.0087890625,10.494140625,0)" xlink:href="#as"/></g><g id="o"><use transform="matrix(0.0087890625,0,0,0.0087890625,0,0)" xlink:href="#aC"/><use transform="matrix(0.0087890625,0,0,0.0087890625,10.6435546875,0)" xlink:href="#as"/></g><path d="M611 442c-248 0-391-105-460-228l146-94c47 65 117 165 314 165 178 0 307-82 307-266v-224h-17C863-141 792-18 576-18c-268 0-472-195-472-546 0-346 197-568 476-568 216 0 288 133 326 193h17v-179h175V29c0 289-215 413-487 413zm-5-620c203 0 314-146 314-390 0-237-108-403-314-403-213 0-319 180-319 403 0 230 109 390 319 390" id="aH"/><path d="M471 26C259 26 90-98 90-318c0-256 228-303 435-329 202-27 287-16 287-108 0-139-79-219-234-219-161 0-248 86-283 164l-173-57c86-203 278-265 451-265 150 0 419 46 419 395V0H815v-152h-12C765-73 660 26 471 26zm31-159c199 0 310-134 310-271v-155c-30 35-226 55-295 64-131 17-246 59-246 186 0 116 97 176 231 176zm-23-1131l140-294h201l-194 294H479" id="aI"/><g id="p"><use transform="matrix(0.0087890625,0,0,0.0087890625,0,0)" xlink:href="#aH"/><use transform="matrix(0.0087890625,0,0,0.0087890625,11.0390625,0)" xlink:href="#ar"/><use transform="matrix(0.0087890625,0,0,0.0087890625,17.8154296875,0)" xlink:href="#aI"/><use transform="matrix(0.0087890625,0,0,0.0087890625,27.9228515625,0)" xlink:href="#at"/><use transform="matrix(0.0087890625,0,0,0.0087890625,34.5849609375,0)" xlink:href="#aw"/><use transform="matrix(0.0087890625,0,0,0.0087890625,38.9443359375,0)" xlink:href="#av"/><use transform="matrix(0.0087890625,0,0,0.0087890625,49.2275390625,0)" xlink:href="#am"/></g><path d="M664-669c3 277-82 343-222 425-88 53-156 134-156 250 0 139 108 227 243 227 118 0 235-70 246-236h190c-10 251-200 395-436 395-259 0-427-165-427-393 0-161 74-273 203-352 132-80 180-132 178-316h181zm-93-462c75 0 135 60 135 134 0 75-60 135-135 135-74 0-134-60-134-135 0-74 60-134 134-134" id="aJ"/><path d="M783 20c-382 0-661-292-661-764 0-473 279-766 661-766 302 0 548 182 601 489h-190c-42-204-217-313-411-313-268 0-476 208-476 590 0 381 209 588 476 588 195 0 369-110 411-313h190c-52 303-296 489-601 489" id="aK"/><path d="M383-449c-3-277 82-343 222-425 88-53 156-134 156-250 0-139-108-227-243-227-118 0-235 70-246 236H82c10-251 200-395 436-395 259 0 427 165 427 393 0 161-74 273-203 352-132 80-180 132-178 316H383zm93 462c-75 0-135-60-135-134 0-75 60-135 135-135 74 0 134 60 134 135 0 74-60 134-134 134" id="aL"/><g id="q"><use transform="matrix(0.0087890625,0,0,0.0087890625,0,0)" xlink:href="#aJ"/><use transform="matrix(0.0087890625,0,0,0.0087890625,9.2021484375,0)" xlink:href="#aK"/><use transform="matrix(0.0087890625,0,0,0.0087890625,22.3505859375,0)" xlink:href="#am"/><use transform="matrix(0.0087890625,0,0,0.0087890625,33.1435546875,0)" xlink:href="#aw"/><use transform="matrix(0.0087890625,0,0,0.0087890625,37.5029296875,0)" xlink:href="#as"/><use transform="matrix(0.0087890625,0,0,0.0087890625,48.1376953125,0)" xlink:href="#av"/><use transform="matrix(0.0087890625,0,0,0.0087890625,58.4208984375,0)" xlink:href="#aw"/><use transform="matrix(0.0087890625,0,0,0.0087890625,62.7802734375,0)" xlink:href="#ay"/><use transform="matrix(0.0087890625,0,0,0.0087890625,73.8017578125,0)" xlink:href="#az"/><use transform="matrix(0.0087890625,0,0,0.0087890625,84.2958984375,0)" xlink:href="#as"/><use transform="matrix(0.0087890625,0,0,0.0087890625,94.9306640625,0)" xlink:href="#aL"/></g><path d="M158 0v-1118h180V0H158zm12-1264l140-294h201l-194 294H170" id="aM"/><g id="r"><use transform="matrix(0.0087890625,0,0,0.0087890625,0,0)" xlink:href="#ao"/><use transform="matrix(0.0087890625,0,0,0.0087890625,11.548828125,0)" xlink:href="#aM"/></g><path d="M52 0l541-1490h220L1361 0h-200l-149-416H398L254 0H52zm404-582h497c-103-290-145-390-251-756-108 377-145 460-246 756" id="aN"/><g id="s"><use transform="matrix(0.0087890625,0,0,0.0087890625,0,0)" xlink:href="#aN"/><use transform="matrix(0.0087890625,0,0,0.0087890625,12.4189453125,0)" xlink:href="#aC"/><use transform="matrix(0.0087890625,0,0,0.0087890625,23.0625,0)" xlink:href="#an"/><use transform="matrix(0.0087890625,0,0,0.0087890625,32.5634765625,0)" xlink:href="#az"/><use transform="matrix(0.0087890625,0,0,0.0087890625,43.0576171875,0)" xlink:href="#as"/><use transform="matrix(0.0087890625,0,0,0.0087890625,53.6923828125,0)" xlink:href="#av"/><use transform="matrix(0.0087890625,0,0,0.0087890625,63.9755859375,0)" xlink:href="#aw"/><use transform="matrix(0.0087890625,0,0,0.0087890625,68.3349609375,0)" xlink:href="#ak"/></g><g id="t"><use transform="matrix(0.0087890625,0,0,0.0087890625,0,0)" xlink:href="#ay"/><use transform="matrix(0.0087890625,0,0,0.0087890625,11.021484375,0)" xlink:href="#az"/></g><g id="u"><use transform="matrix(0.0087890625,0,0,0.0087890625,0,0)" xlink:href="#ay"/><use transform="matrix(0.0087890625,0,0,0.0087890625,11.021484375,0)" xlink:href="#az"/><use transform="matrix(0.0087890625,0,0,0.0087890625,21.515625,0)" xlink:href="#an"/><use transform="matrix(0.0087890625,0,0,0.0087890625,31.0166015625,0)" xlink:href="#aF"/><use transform="matrix(0.0087890625,0,0,0.0087890625,42.0380859375,0)" xlink:href="#aA"/><use transform="matrix(0.0087890625,0,0,0.0087890625,46.3974609375,0)" xlink:href="#ak"/><use transform="matrix(0.0087890625,0,0,0.0087890625,56.5048828125,0)" xlink:href="#aD"/><use transform="matrix(0.0087890625,0,0,0.0087890625,66.4453125,0)" xlink:href="#ak"/><use transform="matrix(0.0087890625,0,0,0.0087890625,76.552734375,0)" xlink:href="#au"/><use transform="matrix(0.0087890625,0,0,0.0087890625,92.3203125,0)" xlink:href="#aw"/><use transform="matrix(0.0087890625,0,0,0.0087890625,96.6796875,0)" xlink:href="#az"/><use transform="matrix(0.0087890625,0,0,0.0087890625,107.173828125,0)" xlink:href="#as"/><use transform="matrix(0.0087890625,0,0,0.0087890625,117.80859375,0)" xlink:href="#al"/><use transform="matrix(0.0087890625,0,0,0.0087890625,123.521484375,0)" xlink:href="#am"/></g><g id="v"><use transform="matrix(0.0087890625,0,0,0.0087890625,0,0)" xlink:href="#az"/><use transform="matrix(0.0087890625,0,0,0.0087890625,10.494140625,0)" xlink:href="#an"/><use transform="matrix(0.0087890625,0,0,0.0087890625,19.9951171875,0)" xlink:href="#al"/><use transform="matrix(0.0087890625,0,0,0.0087890625,25.9716796875,0)" xlink:href="#aI"/><use transform="matrix(0.0087890625,0,0,0.0087890625,36.0791015625,0)" xlink:href="#al"/><use transform="matrix(0.0087890625,0,0,0.0087890625,41.9677734375,0)" xlink:href="#aw"/><use transform="matrix(0.0087890625,0,0,0.0087890625,46.3271484375,0)" xlink:href="#av"/><use transform="matrix(0.0087890625,0,0,0.0087890625,56.6103515625,0)" xlink:href="#am"/></g><path d="M180 0v-1490h224l606 953c40 63 108 177 176 312-27-437-7-821-13-1265h190V0h-226C860-448 622-778 356-1262c27 476 11 792 15 1262H180" id="aO"/><g id="w"><use transform="matrix(0.0087890625,0,0,0.0087890625,0,0)" xlink:href="#aO"/><use transform="matrix(0.0087890625,0,0,0.0087890625,13.5615234375,0)" xlink:href="#am"/></g><path d="M370-1490V0H180v-1490h190" id="aP"/><g id="x"><use transform="matrix(0.0087890625,0,0,0.0087890625,0,0)" xlink:href="#aP"/><use transform="matrix(0.0087890625,0,0,0.0087890625,4.833984375,0)" xlink:href="#as"/><use transform="matrix(0.0087890625,0,0,0.0087890625,15.205078125,0)" xlink:href="#aE"/><use transform="matrix(0.0087890625,0,0,0.0087890625,24.9697265625,0)" xlink:href="#az"/><use transform="matrix(0.0087890625,0,0,0.0087890625,35.4638671875,0)" xlink:href="#ar"/><use transform="matrix(0.0087890625,0,0,0.0087890625,42.521484375,0)" xlink:href="#al"/><use transform="matrix(0.0087890625,0,0,0.0087890625,48.41015625,0)" xlink:href="#aw"/><use transform="matrix(0.0087890625,0,0,0.0087890625,52.76953125,0)" xlink:href="#ar"/></g><g id="y"><use transform="matrix(0.0087890625,0,0,0.0087890625,0,0)" xlink:href="#aA"/><use transform="matrix(0.0087890625,0,0,0.0087890625,4.359375,0)" xlink:href="#am"/><use transform="matrix(0.0087890625,0,0,0.0087890625,15.15234375,0)" xlink:href="#an"/></g><g id="z"><use transform="matrix(0.0087890625,0,0,0.0087890625,0,0)" xlink:href="#ay"/><use transform="matrix(0.0087890625,0,0,0.0087890625,11.021484375,0)" xlink:href="#ak"/><use transform="matrix(0.0087890625,0,0,0.0087890625,21.12890625,0)" xlink:href="#al"/><use transform="matrix(0.0087890625,0,0,0.0087890625,26.841796875,0)" xlink:href="#am"/><use transform="matrix(0.0087890625,0,0,0.0087890625,37.634765625,0)" xlink:href="#an"/></g><g id="A"><use transform="matrix(0.0087890625,0,0,0.0087890625,0,0)" xlink:href="#ao"/><use transform="matrix(0.0087890625,0,0,0.0087890625,11.548828125,0)" xlink:href="#ap"/><use transform="matrix(0.0087890625,0,0,0.0087890625,22.3681640625,0)" xlink:href="#aj"/><use transform="matrix(0.0087890625,0,0,0.0087890625,34.822265625,0)" xlink:href="#aq"/></g><path d="M659 0H135v-1490h529c448 0 721 280 721 744 0 466-273 746-726 746zM440-263h204c287 0 437-148 437-483 0-333-150-481-435-481H440v964" id="aQ"/><path d="M633 22C291 22 81-200 81-553c0-345 210-579 537-579 292 0 525 185 525 567v84H378c7 183 109 277 260 277 105 0 184-46 216-132l272 51C1071-99 893 22 633 22zM380-669h474c-15-146-94-237-233-237-143 0-229 99-241 237" id="aR"/><path d="M683-1118v229H474v562c0 71 29 104 102 104 23 0 73-7 95-13l43 225C647 9 580 16 520 16 296 16 174-96 174-301v-588H20v-229h154v-266h300v266h209" id="aS"/><path d="M128 0v-1118h290v195h12c54-169 184-238 367-200v268c-27-8-86-15-130-15-138 0-239 95-239 234V0H128" id="aT"/><path d="M128 0v-1118h278l12 217c60-163 185-234 319-234 143 0 236 81 288 251 63-172 205-251 359-251 205 0 357 138 357 381V0h-301v-697c0-126-76-187-177-187-114 0-184 79-184 196V0H789v-705c0-109-72-179-174-179-106 0-187 74-187 208V0H128" id="aU"/><path d="M128 0v-1118h300V0H128zm150-1264c-91 0-165-68-165-154 0-85 74-154 165-154 90 0 165 69 165 154 0 86-75 154-165 154" id="aV"/><path d="M428-647V0H128v-1118h283l4 231c63-156 176-245 348-245 232 0 384 159 384 421V0H847v-659c0-139-76-222-202-222-128 0-217 86-217 234" id="aW"/><path d="M440 22C227 22 68-92 68-313c0-250 202-322 422-343 195-21 271-24 271-105 0-95-63-149-175-149-116 0-187 57-211 129l-275-46c57-194 237-305 487-305 240 0 474 108 474 379V0H777v-155h-10C713-51 605 22 440 22zm85-211c140 0 238-93 238-211v-121c-37 26-156 42-222 51-111 16-185 59-185 149 0 87 70 132 169 132" id="aX"/><g id="B"><use transform="matrix(0.0087890625,0,0,0.0087890625,0,0)" xlink:href="#aQ"/><use transform="matrix(0.0087890625,0,0,0.0087890625,12.9990234375,0)" xlink:href="#aR"/><use transform="matrix(0.0087890625,0,0,0.0087890625,23.7216796875,0)" xlink:href="#aS"/><use transform="matrix(0.0087890625,0,0,0.0087890625,30.1376953125,0)" xlink:href="#aR"/><use transform="matrix(0.0087890625,0,0,0.0087890625,40.8603515625,0)" xlink:href="#aT"/><use transform="matrix(0.0087890625,0,0,0.0087890625,48.322265625,0)" xlink:href="#aU"/><use transform="matrix(0.0087890625,0,0,0.0087890625,64.7490234375,0)" xlink:href="#aV"/><use transform="matrix(0.0087890625,0,0,0.0087890625,69.626953125,0)" xlink:href="#aW"/><use transform="matrix(0.0087890625,0,0,0.0087890625,80.8330078125,0)" xlink:href="#aX"/><use transform="matrix(0.0087890625,0,0,0.0087890625,91.283203125,0)" xlink:href="#aT"/></g><path d="M428-1490V0H128v-1490h300" id="aY"/><g id="C"><use transform="matrix(0.0087890625,0,0,0.0087890625,0,0)" xlink:href="#aY"/><use transform="matrix(0.0087890625,0,0,0.0087890625,4.8779296875,0)" xlink:href="#aX"/></g><path d="M128 418v-1536h295v188h14c41-89 129-202 319-202 248 0 453 193 453 575 0 372-197 576-455 576-183 0-275-108-317-198h-9v597H128zm534-640c156 0 240-139 240-336 0-196-83-334-240-334-154 0-241 131-241 334 0 202 88 336 241 336" id="aZ"/><path d="M572 22C302 22 117-98 78-306l279-48c29 105 101 156 224 156 114 0 185-48 185-115 0-118-228-130-337-155-215-49-322-150-322-317 0-215 187-347 470-347 265 0 424 116 466 298l-266 47c-24-76-87-130-196-130-98 0-174 46-174 113 0 56 38 95 144 117l201 40c216 44 320 143 320 302 0 220-207 367-500 367" id="ba"/><path d="M628 22C291 22 81-210 81-554c0-346 210-578 547-578 265 0 455 142 497 372l-279 52c-25-116-99-188-215-188-160 0-244 139-244 341 0 200 84 341 244 341 116 0 193-74 217-195l279 51C1085-123 896 22 628 22" id="bb"/><g id="D"><use transform="matrix(0.0087890625,0,0,0.0087890625,0,0)" xlink:href="#aZ"/><use transform="matrix(0.0087890625,0,0,0.0087890625,11.3466796875,0)" xlink:href="#aT"/><use transform="matrix(0.0087890625,0,0,0.0087890625,18.2373046875,0)" xlink:href="#aR"/><use transform="matrix(0.0087890625,0,0,0.0087890625,28.9599609375,0)" xlink:href="#ba"/><use transform="matrix(0.0087890625,0,0,0.0087890625,39.041015625,0)" xlink:href="#aR"/><use transform="matrix(0.0087890625,0,0,0.0087890625,49.763671875,0)" xlink:href="#aW"/><use transform="matrix(0.0087890625,0,0,0.0087890625,60.9697265625,0)" xlink:href="#bb"/><use transform="matrix(0.0087890625,0,0,0.0087890625,71.560546875,0)" xlink:href="#aV"/><use transform="matrix(0.0087890625,0,0,0.0087890625,76.4384765625,0)" xlink:href="#aX"/></g><path d="M537 19C279 19 81-185 81-557c0-382 206-575 454-575 190 0 278 113 318 202h10v-560h300V0H868v-179h-15C812-89 719 19 537 19zm92-241c153 0 240-134 240-336 0-203-86-334-240-334-158 0-240 138-240 334 0 197 84 336 240 336" id="bc"/><g id="E"><use transform="matrix(0.0087890625,0,0,0.0087890625,0,0)" xlink:href="#bc"/><use transform="matrix(0.0087890625,0,0,0.0087890625,11.3466796875,0)" xlink:href="#aR"/></g><path d="M120 0v-182l551-686v-8H137v-242h897v199L514-250v8h539V0H120" id="bd"/><path d="M628 22C291 22 81-210 81-554c0-346 210-578 547-578 336 0 547 232 547 578 0 344-211 576-547 576zm0-236c160 0 242-146 242-341 0-197-82-341-242-341S387-753 387-555c0 195 81 341 241 341" id="be"/><g id="F"><use transform="matrix(0.0087890625,0,0,0.0087890625,0,0)" xlink:href="#bc"/><use transform="matrix(0.0087890625,0,0,0.0087890625,11.3466796875,0)" xlink:href="#aR"/><use transform="matrix(0.0087890625,0,0,0.0087890625,22.0693359375,0)" xlink:href="#ba"/><use transform="matrix(0.0087890625,0,0,0.0087890625,32.150390625,0)" xlink:href="#aZ"/><use transform="matrix(0.0087890625,0,0,0.0087890625,43.4970703125,0)" xlink:href="#aY"/><use transform="matrix(0.0087890625,0,0,0.0087890625,48.375,0)" xlink:href="#aX"/><use transform="matrix(0.0087890625,0,0,0.0087890625,58.8251953125,0)" xlink:href="#bd"/><use transform="matrix(0.0087890625,0,0,0.0087890625,69.134765625,0)" xlink:href="#aX"/><use transform="matrix(0.0087890625,0,0,0.0087890625,79.5849609375,0)" xlink:href="#aU"/><use transform="matrix(0.0087890625,0,0,0.0087890625,96.01171875,0)" xlink:href="#aV"/><use transform="matrix(0.0087890625,0,0,0.0087890625,100.8896484375,0)" xlink:href="#aR"/><use transform="matrix(0.0087890625,0,0,0.0087890625,111.6123046875,0)" xlink:href="#aW"/><use transform="matrix(0.0087890625,0,0,0.0087890625,122.818359375,0)" xlink:href="#aS"/><use transform="matrix(0.0087890625,0,0,0.0087890625,129.234375,0)" xlink:href="#be"/></g><path d="M440 22C227 22 68-92 68-313c0-250 202-322 422-343 195-21 271-24 271-105 0-95-63-149-175-149-116 0-187 57-211 129l-275-46c57-194 237-305 487-305 240 0 474 108 474 379V0H777v-155h-10C713-51 605 22 440 22zm85-211c140 0 238-93 238-211v-121c-37 26-156 42-222 51-111 16-185 59-185 149 0 87 70 132 169 132zm-44-1071l139-311h278l-207 311H481" id="bf"/><g id="G"><use transform="matrix(0.0087890625,0,0,0.0087890625,0,0)" xlink:href="#aR"/><use transform="matrix(0.0087890625,0,0,0.0087890625,10.72265625,0)" xlink:href="#ba"/><use transform="matrix(0.0087890625,0,0,0.0087890625,20.8037109375,0)" xlink:href="#aS"/><use transform="matrix(0.0087890625,0,0,0.0087890625,27.4833984375,0)" xlink:href="#bf"/><use transform="matrix(0.0087890625,0,0,0.0087890625,37.93359375,0)" xlink:href="#aS"/><use transform="matrix(0.0087890625,0,0,0.0087890625,44.525390625,0)" xlink:href="#aV"/><use transform="matrix(0.0087890625,0,0,0.0087890625,49.4033203125,0)" xlink:href="#bb"/><use transform="matrix(0.0087890625,0,0,0.0087890625,59.994140625,0)" xlink:href="#be"/></g><g id="H"><use transform="matrix(0.0087890625,0,0,0.0087890625,0,0)" xlink:href="#aR"/><use transform="matrix(0.0087890625,0,0,0.0087890625,10.72265625,0)" xlink:href="#aW"/></g><g id="I"><use transform="matrix(0.0087890625,0,0,0.0087890625,0,0)" xlink:href="#bc"/><use transform="matrix(0.0087890625,0,0,0.0087890625,11.3466796875,0)" xlink:href="#aX"/><use transform="matrix(0.0087890625,0,0,0.0087890625,21.796875,0)" xlink:href="#aS"/><use transform="matrix(0.0087890625,0,0,0.0087890625,28.212890625,0)" xlink:href="#be"/><use transform="matrix(0.0087890625,0,0,0.0087890625,39.251953125,0)" xlink:href="#ba"/></g><path d="M681 22C323 22 94-145 85-462h297c10 151 131 226 296 226 163 0 271-77 271-190 0-102-95-149-257-189l-164-41c-252-61-403-188-403-405 0-269 236-449 560-449 330 0 546 183 551 445H941c-11-119-106-188-259-188-156 0-244 72-244 172-3 156 226 185 373 221 250 61 445 186 445 436 0 271-213 446-575 446" id="bg"/><path d="M135 0v-1490h997v253H440v360h640v249H440v375h694V0H135" id="bh"/><path d="M571 0L49-1490h339c138 427 271 775 384 1244 111-471 237-815 371-1244h337L970 0H571" id="bi"/><g id="J"><use transform="matrix(0.0087890625,0,0,0.0087890625,0,0)" xlink:href="#bg"/><use transform="matrix(0.0087890625,0,0,0.0087890625,11.7861328125,0)" xlink:href="#bh"/><use transform="matrix(0.0087890625,0,0,0.0087890625,22.7197265625,0)" xlink:href="#bi"/></g><g id="K"><use transform="matrix(0.0087890625,0,0,0.0087890625,0,0)" xlink:href="#aj"/><use transform="matrix(0.0087890625,0,0,0.0087890625,12.990234375,0)" xlink:href="#ak"/><use transform="matrix(0.0087890625,0,0,0.0087890625,23.09765625,0)" xlink:href="#al"/><use transform="matrix(0.0087890625,0,0,0.0087890625,28.810546875,0)" xlink:href="#am"/><use transform="matrix(0.0087890625,0,0,0.0087890625,39.603515625,0)" xlink:href="#an"/></g><g id="L"><use transform="matrix(0.0087890625,0,0,0.0087890625,0,0)" xlink:href="#ao"/><use transform="matrix(0.0087890625,0,0,0.0087890625,11.548828125,0)" xlink:href="#ap"/><use transform="matrix(0.0087890625,0,0,0.0087890625,22.3681640625,0)" xlink:href="#aB"/></g><path d="M180 0v-1490h270l367 940c28 72 75 218 110 339 35-117 81-264 110-339l362-940h271V0h-187c2-448-5-837 7-1287-157 497-311 829-483 1287H842C666-458 514-784 354-1284c12 438 5 843 7 1284H180" id="bj"/><g id="M"><use transform="matrix(0.0087890625,0,0,0.0087890625,0,0)" xlink:href="#bj"/><use transform="matrix(0.0087890625,0,0,0.0087890625,16.259765625,0)" xlink:href="#am"/><use transform="matrix(0.0087890625,0,0,0.0087890625,27.052734375,0)" xlink:href="#ay"/><use transform="matrix(0.0087890625,0,0,0.0087890625,38.07421875,0)" xlink:href="#az"/><use transform="matrix(0.0087890625,0,0,0.0087890625,48.568359375,0)" xlink:href="#aA"/><use transform="matrix(0.0087890625,0,0,0.0087890625,52.927734375,0)" xlink:href="#am"/></g><g id="N"><use transform="matrix(0.0087890625,0,0,0.0087890625,0,0)" xlink:href="#ay"/><use transform="matrix(0.0087890625,0,0,0.0087890625,11.021484375,0)" xlink:href="#az"/><use transform="matrix(0.0087890625,0,0,0.0087890625,21.515625,0)" xlink:href="#aA"/></g><path d="M677 24c-213 0-288-135-325-197h-20V0H158v-1490h180v551h14c37-59 106-193 324-193 279 0 474 222 474 576 0 356-194 580-473 580zm-27-161c209 0 317-186 317-421 0-232-105-413-317-413-206 0-314 166-314 413 0 249 111 421 314 421" id="bk"/><g id="O"><use transform="matrix(0.0087890625,0,0,0.0087890625,0,0)" xlink:href="#an"/><use transform="matrix(0.0087890625,0,0,0.0087890625,9.5009765625,0)" xlink:href="#aC"/><use transform="matrix(0.0087890625,0,0,0.0087890625,20.14453125,0)" xlink:href="#bk"/><use transform="matrix(0.0087890625,0,0,0.0087890625,31.166015625,0)" xlink:href="#an"/><use transform="matrix(0.0087890625,0,0,0.0087890625,40.6669921875,0)" xlink:href="#aC"/><use transform="matrix(0.0087890625,0,0,0.0087890625,51.310546875,0)" xlink:href="#az"/><use transform="matrix(0.0087890625,0,0,0.0087890625,61.8046875,0)" xlink:href="#aA"/><use transform="matrix(0.0087890625,0,0,0.0087890625,66.1640625,0)" xlink:href="#am"/></g><g id="P"><use transform="matrix(0.0087890625,0,0,0.0087890625,0,0)" xlink:href="#bj"/><use transform="matrix(0.0087890625,0,0,0.0087890625,16.259765625,0)" xlink:href="#am"/><use transform="matrix(0.0087890625,0,0,0.0087890625,27.052734375,0)" xlink:href="#ay"/><use transform="matrix(0.0087890625,0,0,0.0087890625,38.07421875,0)" xlink:href="#az"/><use transform="matrix(0.0087890625,0,0,0.0087890625,48.568359375,0)" xlink:href="#aA"/><use transform="matrix(0.0087890625,0,0,0.0087890625,52.927734375,0)" xlink:href="#ak"/><use transform="matrix(0.0087890625,0,0,0.0087890625,63.03515625,0)" xlink:href="#ar"/></g><g id="Q"><use transform="matrix(0.0087890625,0,0,0.0087890625,0,0)" xlink:href="#aA"/><use transform="matrix(0.0087890625,0,0,0.0087890625,4.359375,0)" xlink:href="#ak"/></g><g id="R"><use transform="matrix(0.0087890625,0,0,0.0087890625,0,0)" xlink:href="#ar"/><use transform="matrix(0.0087890625,0,0,0.0087890625,6.4775390625,0)" xlink:href="#az"/><use transform="matrix(0.0087890625,0,0,0.0087890625,16.9716796875,0)" xlink:href="#an"/><use transform="matrix(0.0087890625,0,0,0.0087890625,26.47265625,0)" xlink:href="#aF"/><use transform="matrix(0.0087890625,0,0,0.0087890625,37.494140625,0)" xlink:href="#aC"/><use transform="matrix(0.0087890625,0,0,0.0087890625,48.1376953125,0)" xlink:href="#az"/><use transform="matrix(0.0087890625,0,0,0.0087890625,58.6318359375,0)" xlink:href="#an"/><use transform="matrix(0.0087890625,0,0,0.0087890625,68.1328125,0)" xlink:href="#al"/><use transform="matrix(0.0087890625,0,0,0.0087890625,74.109375,0)" xlink:href="#ak"/></g><g id="S"><use transform="matrix(0.0087890625,0,0,0.0087890625,0,0)" xlink:href="#ao"/><use transform="matrix(0.0087890625,0,0,0.0087890625,11.548828125,0)" xlink:href="#ap"/><use transform="matrix(0.0087890625,0,0,0.0087890625,22.3681640625,0)" xlink:href="#aB"/></g><path d="M157-1118h181V80c1 225-123 350-364 338V252c126 9 184-48 183-172v-1198zm91-183c-68 0-125-53-125-119s57-119 125-119c69 0 126 53 126 119s-57 119-126 119" id="bl"/><g id="T"><use transform="matrix(0.0087890625,0,0,0.0087890625,0,0)" xlink:href="#aN"/><use transform="matrix(0.0087890625,0,0,0.0087890625,12.4189453125,0)" xlink:href="#bl"/><use transform="matrix(0.0087890625,0,0,0.0087890625,16.7783203125,0)" xlink:href="#aC"/><use transform="matrix(0.0087890625,0,0,0.0087890625,27.421875,0)" xlink:href="#an"/><use transform="matrix(0.0087890625,0,0,0.0087890625,36.9228515625,0)" xlink:href="#al"/><use transform="matrix(0.0087890625,0,0,0.0087890625,42.8994140625,0)" xlink:href="#ak"/><use transform="matrix(0.0087890625,0,0,0.0087890625,53.0068359375,0)" xlink:href="#ar"/></g><g id="U"><use transform="matrix(0.0087890625,0,0,0.0087890625,0,0)" xlink:href="#av"/><use transform="matrix(0.0087890625,0,0,0.0087890625,10.283203125,0)" xlink:href="#aC"/><use transform="matrix(0.0087890625,0,0,0.0087890625,20.9267578125,0)" xlink:href="#ar"/><use transform="matrix(0.0087890625,0,0,0.0087890625,27.984375,0)" xlink:href="#aE"/><use transform="matrix(0.0087890625,0,0,0.0087890625,38.0126953125,0)" xlink:href="#ak"/></g><g id="V"><use transform="matrix(0.0087890625,0,0,0.0087890625,0,0)" xlink:href="#ar"/><use transform="matrix(0.0087890625,0,0,0.0087890625,6.4775390625,0)" xlink:href="#az"/><use transform="matrix(0.0087890625,0,0,0.0087890625,16.9716796875,0)" xlink:href="#an"/><use transform="matrix(0.0087890625,0,0,0.0087890625,26.47265625,0)" xlink:href="#aw"/><use transform="matrix(0.0087890625,0,0,0.0087890625,30.83203125,0)" xlink:href="#an"/><use transform="matrix(0.0087890625,0,0,0.0087890625,40.3330078125,0)" xlink:href="#al"/><use transform="matrix(0.0087890625,0,0,0.0087890625,46.2216796875,0)" xlink:href="#aw"/><use transform="matrix(0.0087890625,0,0,0.0087890625,50.5810546875,0)" xlink:href="#aE"/><use transform="matrix(0.0087890625,0,0,0.0087890625,60.697265625,0)" xlink:href="#aw"/><use transform="matrix(0.0087890625,0,0,0.0087890625,65.056640625,0)" xlink:href="#ay"/><use transform="matrix(0.0087890625,0,0,0.0087890625,76.078125,0)" xlink:href="#ak"/><use transform="matrix(0.0087890625,0,0,0.0087890625,86.185546875,0)" xlink:href="#ay"/></g><g id="W"><use transform="matrix(0.0087890625,0,0,0.0087890625,0,0)" xlink:href="#ak"/><use transform="matrix(0.0087890625,0,0,0.0087890625,10.107421875,0)" xlink:href="#aF"/><use transform="matrix(0.0087890625,0,0,0.0087890625,21.3046875,0)" xlink:href="#ak"/><use transform="matrix(0.0087890625,0,0,0.0087890625,31.412109375,0)" xlink:href="#ar"/><use transform="matrix(0.0087890625,0,0,0.0087890625,37.8896484375,0)" xlink:href="#az"/><use transform="matrix(0.0087890625,0,0,0.0087890625,48.3837890625,0)" xlink:href="#as"/><use transform="matrix(0.0087890625,0,0,0.0087890625,59.0185546875,0)" xlink:href="#al"/><use transform="matrix(0.0087890625,0,0,0.0087890625,64.7314453125,0)" xlink:href="#az"/></g><g id="X"><use transform="matrix(0.0087890625,0,0,0.0087890625,0,0)" xlink:href="#am"/><use transform="matrix(0.0087890625,0,0,0.0087890625,10.79296875,0)" xlink:href="#bk"/><use transform="matrix(0.0087890625,0,0,0.0087890625,21.814453125,0)" xlink:href="#an"/><use transform="matrix(0.0087890625,0,0,0.0087890625,31.3154296875,0)" xlink:href="#az"/><use transform="matrix(0.0087890625,0,0,0.0087890625,41.8095703125,0)" xlink:href="#ar"/><use transform="matrix(0.0087890625,0,0,0.0087890625,48.8671875,0)" xlink:href="#aE"/><use transform="matrix(0.0087890625,0,0,0.0087890625,58.8955078125,0)" xlink:href="#ak"/><use transform="matrix(0.0087890625,0,0,0.0087890625,69.0029296875,0)" xlink:href="#ay"/><use transform="matrix(0.0087890625,0,0,0.0087890625,80.0244140625,0)" xlink:href="#ak"/></g><g id="Y"><use transform="matrix(0.0087890625,0,0,0.0087890625,0,0)" xlink:href="#ao"/><use transform="matrix(0.0087890625,0,0,0.0087890625,11.548828125,0)" xlink:href="#ap"/><use transform="matrix(0.0087890625,0,0,0.0087890625,22.3681640625,0)" xlink:href="#aB"/></g><use transform="matrix(0.0087890625,0,0,0.0087890625,0,0)" xlink:href="#ak" id="Z"/><g id="aa"><use transform="matrix(0.0087890625,0,0,0.0087890625,0,0)" xlink:href="#au"/><use transform="matrix(0.0087890625,0,0,0.0087890625,15.767578125,0)" xlink:href="#am"/><use transform="matrix(0.0087890625,0,0,0.0087890625,26.560546875,0)" xlink:href="#ay"/><use transform="matrix(0.0087890625,0,0,0.0087890625,37.58203125,0)" xlink:href="#az"/><use transform="matrix(0.0087890625,0,0,0.0087890625,48.076171875,0)" xlink:href="#aA"/><use transform="matrix(0.0087890625,0,0,0.0087890625,52.435546875,0)" xlink:href="#ak"/><use transform="matrix(0.0087890625,0,0,0.0087890625,62.54296875,0)" xlink:href="#ay"/><use transform="matrix(0.0087890625,0,0,0.0087890625,73.564453125,0)" xlink:href="#ak"/></g><path d="M786 20C389 20 94-260 94-744c0-487 299-766 692-766 339 0 597 194 641 529h-309c-28-162-156-258-326-258-233 0-388 179-388 495 0 323 157 493 387 493 170 0 298-97 328-259h309c-34 277-266 530-642 530" id="bm"/><path d="M628 22C291 22 81-210 81-554c0-346 210-578 547-578 336 0 547 232 547 578 0 344-211 576-547 576zm0-236c160 0 242-146 242-341 0-197-82-341-242-341S387-753 387-555c0 195 81 341 241 341zM519-1260l139-311h278l-207 311H519" id="bn"/><g id="ab"><use transform="matrix(0.0087890625,0,0,0.0087890625,0,0)" xlink:href="#bm"/><use transform="matrix(0.0087890625,0,0,0.0087890625,13.3154296875,0)" xlink:href="#be"/><use transform="matrix(0.0087890625,0,0,0.0087890625,24.3544921875,0)" xlink:href="#aT"/><use transform="matrix(0.0087890625,0,0,0.0087890625,31.81640625,0)" xlink:href="#aT"/><use transform="matrix(0.0087890625,0,0,0.0087890625,38.70703125,0)" xlink:href="#aR"/><use transform="matrix(0.0087890625,0,0,0.0087890625,49.4296875,0)" xlink:href="#bb"/><use transform="matrix(0.0087890625,0,0,0.0087890625,60.0205078125,0)" xlink:href="#bb"/><use transform="matrix(0.0087890625,0,0,0.0087890625,70.611328125,0)" xlink:href="#aV"/><use transform="matrix(0.0087890625,0,0,0.0087890625,75.4892578125,0)" xlink:href="#bn"/><use transform="matrix(0.0087890625,0,0,0.0087890625,86.5283203125,0)" xlink:href="#aW"/></g><g id="ac"><use transform="matrix(0.0087890625,0,0,0.0087890625,0,0)" xlink:href="#bc"/><use transform="matrix(0.0087890625,0,0,0.0087890625,11.3466796875,0)" xlink:href="#aR"/></g><g id="ad"><use transform="matrix(0.0087890625,0,0,0.0087890625,0,0)" xlink:href="#aY"/><use transform="matrix(0.0087890625,0,0,0.0087890625,4.8779296875,0)" xlink:href="#be"/><use transform="matrix(0.0087890625,0,0,0.0087890625,15.9169921875,0)" xlink:href="#ba"/></g><g id="ae"><use transform="matrix(0.0087890625,0,0,0.0087890625,0,0)" xlink:href="#aj"/><use transform="matrix(0.0087890625,0,0,0.0087890625,12.990234375,0)" xlink:href="#ak"/><use transform="matrix(0.0087890625,0,0,0.0087890625,23.09765625,0)" xlink:href="#al"/><use transform="matrix(0.0087890625,0,0,0.0087890625,28.810546875,0)" xlink:href="#am"/><use transform="matrix(0.0087890625,0,0,0.0087890625,39.603515625,0)" xlink:href="#an"/></g><g id="af"><use transform="matrix(0.0087890625,0,0,0.0087890625,0,0)" xlink:href="#ao"/><use transform="matrix(0.0087890625,0,0,0.0087890625,11.548828125,0)" xlink:href="#ap"/><use transform="matrix(0.0087890625,0,0,0.0087890625,22.3681640625,0)" xlink:href="#aB"/></g><g id="ag"><use transform="matrix(0.0087890625,0,0,0.0087890625,0,0)" xlink:href="#av"/><use transform="matrix(0.0087890625,0,0,0.0087890625,10.283203125,0)" xlink:href="#am"/><use transform="matrix(0.0087890625,0,0,0.0087890625,21.076171875,0)" xlink:href="#ar"/><use transform="matrix(0.0087890625,0,0,0.0087890625,28.1337890625,0)" xlink:href="#ar"/><use transform="matrix(0.0087890625,0,0,0.0087890625,34.611328125,0)" xlink:href="#az"/><use transform="matrix(0.0087890625,0,0,0.0087890625,45.10546875,0)" xlink:href="#aH"/><use transform="matrix(0.0087890625,0,0,0.0087890625,56.14453125,0)" xlink:href="#aw"/><use transform="matrix(0.0087890625,0,0,0.0087890625,60.50390625,0)" xlink:href="#ay"/><use transform="matrix(0.0087890625,0,0,0.0087890625,71.525390625,0)" xlink:href="#am"/><use transform="matrix(0.0087890625,0,0,0.0087890625,82.318359375,0)" xlink:href="#an"/></g><g id="ah"><use transform="matrix(0.0087890625,0,0,0.0087890625,0,0)" xlink:href="#aK"/><use transform="matrix(0.0087890625,0,0,0.0087890625,13.1484375,0)" xlink:href="#aC"/><use transform="matrix(0.0087890625,0,0,0.0087890625,23.7919921875,0)" xlink:href="#ak"/><use transform="matrix(0.0087890625,0,0,0.0087890625,33.8994140625,0)" xlink:href="#as"/><use transform="matrix(0.0087890625,0,0,0.0087890625,44.5341796875,0)" xlink:href="#al"/><use transform="matrix(0.0087890625,0,0,0.0087890625,50.4228515625,0)" xlink:href="#aw"/><use transform="matrix(0.0087890625,0,0,0.0087890625,54.7822265625,0)" xlink:href="#at"/><use transform="matrix(0.0087890625,0,0,0.0087890625,61.4443359375,0)" xlink:href="#aw"/><use transform="matrix(0.0087890625,0,0,0.0087890625,65.8037109375,0)" xlink:href="#av"/><use transform="matrix(0.0087890625,0,0,0.0087890625,76.2626953125,0)" xlink:href="#ak"/><use transform="matrix(0.0087890625,0,0,0.0087890625,86.3701171875,0)" xlink:href="#ar"/></g><g id="ai"><use transform="matrix(0.0087890625,0,0,0.0087890625,0,0)" xlink:href="#az"/><use transform="matrix(0.0087890625,0,0,0.0087890625,10.494140625,0)" xlink:href="#aA"/></g></defs></g></svg>